<svg version="1.0" xmlns="http://www.w3.org/2000/svg"
 width="20.000000pt" height="40.000000pt" viewBox="0 0 50.000000 50.000000"
 preserveAspectRatio="xMidYMid meet">
<g transform="translate(0.000000,50.000000) scale(0.100000,-0.100000)"
fill="current" stroke="none">
<path d="M0 200 l0 -200 250 0 250 0 0 200 0 200 -250 0 -250 0 0 -200z m475
0 l0 -175 -225 0 -225 0 -3 165 c-1 90 0 170 3 177 3 11 51 13 227 11 l223 -3
0 -175z"/>
<path d="M74 345 c-4 -8 -4 -26 -2 -40 3 -14 -1 -30 -8 -36 -16 -13 -20 -139
-4 -139 6 0 10 -20 10 -45 l0 -45 40 0 40 0 0 45 c0 25 5 45 10 45 14 0 13
123 -2 138 -6 6 -12 29 -12 49 -1 35 -3 38 -34 41 -22 2 -34 -2 -38 -13z"/>
<path d="M214 345 c-4 -8 -4 -26 -2 -40 3 -14 -1 -30 -8 -36 -16 -13 -20 -139
-4 -139 6 0 10 -20 10 -45 l0 -45 40 0 40 0 0 45 c0 25 5 45 10 45 14 0 13
123 -2 138 -6 6 -12 29 -12 49 -1 35 -3 38 -34 41 -22 2 -34 -2 -38 -13z"/>
<path d="M354 345 c-4 -8 -4 -26 -2 -40 3 -14 -1 -30 -8 -36 -16 -13 -20 -139
-4 -139 6 0 10 -20 10 -45 l0 -45 40 0 40 0 0 45 c0 25 5 45 10 45 14 0 13
123 -2 138 -6 6 -12 29 -12 49 -1 35 -3 38 -34 41 -22 2 -34 -2 -38 -13z"/>
</g>
</svg>
